<mxfile host="Electron" agent="Mozilla/5.0 (Windows NT 10.0; Win64; x64) AppleWebKit/537.36 (KHTML, like Gecko) draw.io/26.1.1 Chrome/132.0.6834.210 Electron/34.3.3 Safari/537.36" version="26.1.1">
  <diagram name="Page-1" id="mVYoueE5hNjHBuA4J1k6">
    <mxGraphModel dx="1050" dy="621" grid="0" gridSize="10" guides="1" tooltips="1" connect="1" arrows="1" fold="1" page="1" pageScale="1" pageWidth="850" pageHeight="1100" math="0" shadow="0">
      <root>
        <mxCell id="0" />
        <mxCell id="1" parent="0" />
        <mxCell id="0tN4Jmf0T8t89IfO1dIK-53" style="edgeStyle=orthogonalEdgeStyle;rounded=0;orthogonalLoop=1;jettySize=auto;html=1;exitX=1;exitY=0.75;exitDx=0;exitDy=0;entryX=0;entryY=0.25;entryDx=0;entryDy=0;endArrow=none;startFill=0;" parent="1" source="0tN4Jmf0T8t89IfO1dIK-1" target="0tN4Jmf0T8t89IfO1dIK-25" edge="1">
          <mxGeometry relative="1" as="geometry">
            <Array as="points">
              <mxPoint x="330" y="325" />
              <mxPoint x="330" y="530" />
            </Array>
          </mxGeometry>
        </mxCell>
        <mxCell id="0tN4Jmf0T8t89IfO1dIK-1" value="&lt;b&gt;&lt;font style=&quot;font-size: 16px;&quot;&gt;FR2355&lt;/font&gt;&lt;/b&gt;" style="rounded=0;whiteSpace=wrap;html=1;" parent="1" vertex="1">
          <mxGeometry x="40" y="70" width="250" height="340" as="geometry" />
        </mxCell>
        <mxCell id="0tN4Jmf0T8t89IfO1dIK-26" style="edgeStyle=orthogonalEdgeStyle;rounded=0;orthogonalLoop=1;jettySize=auto;html=1;exitX=0.5;exitY=0;exitDx=0;exitDy=0;" parent="1" source="0tN4Jmf0T8t89IfO1dIK-2" edge="1">
          <mxGeometry relative="1" as="geometry">
            <mxPoint x="625" y="30" as="targetPoint" />
          </mxGeometry>
        </mxCell>
        <mxCell id="0tN4Jmf0T8t89IfO1dIK-30" style="edgeStyle=orthogonalEdgeStyle;rounded=0;orthogonalLoop=1;jettySize=auto;html=1;exitX=0.5;exitY=1;exitDx=0;exitDy=0;endArrow=none;startFill=0;" parent="1" source="0tN4Jmf0T8t89IfO1dIK-2" edge="1">
          <mxGeometry relative="1" as="geometry">
            <mxPoint x="625" y="370" as="targetPoint" />
          </mxGeometry>
        </mxCell>
        <mxCell id="0tN4Jmf0T8t89IfO1dIK-2" value="&lt;b&gt;&lt;font style=&quot;font-size: 16px;&quot;&gt;LCD&lt;/font&gt;&lt;/b&gt;" style="rounded=0;whiteSpace=wrap;html=1;" parent="1" vertex="1">
          <mxGeometry x="510" y="70" width="230" height="260" as="geometry" />
        </mxCell>
        <mxCell id="0tN4Jmf0T8t89IfO1dIK-4" style="edgeStyle=orthogonalEdgeStyle;rounded=0;orthogonalLoop=1;jettySize=auto;html=1;exitX=1;exitY=0.25;exitDx=0;exitDy=0;entryX=0;entryY=0.34;entryDx=0;entryDy=0;entryPerimeter=0;endArrow=none;startFill=0;" parent="1" edge="1">
          <mxGeometry relative="1" as="geometry">
            <mxPoint x="290" y="150" as="sourcePoint" />
            <mxPoint x="510" y="150" as="targetPoint" />
          </mxGeometry>
        </mxCell>
        <mxCell id="0tN4Jmf0T8t89IfO1dIK-5" style="edgeStyle=orthogonalEdgeStyle;rounded=0;orthogonalLoop=1;jettySize=auto;html=1;exitX=1;exitY=0.25;exitDx=0;exitDy=0;entryX=0;entryY=0.34;entryDx=0;entryDy=0;entryPerimeter=0;endArrow=none;startFill=0;" parent="1" edge="1">
          <mxGeometry relative="1" as="geometry">
            <mxPoint x="290" y="120" as="sourcePoint" />
            <mxPoint x="510" y="120" as="targetPoint" />
          </mxGeometry>
        </mxCell>
        <mxCell id="0tN4Jmf0T8t89IfO1dIK-6" style="edgeStyle=orthogonalEdgeStyle;rounded=0;orthogonalLoop=1;jettySize=auto;html=1;exitX=1;exitY=0.25;exitDx=0;exitDy=0;entryX=0;entryY=0.34;entryDx=0;entryDy=0;entryPerimeter=0;endArrow=none;startFill=0;" parent="1" edge="1">
          <mxGeometry relative="1" as="geometry">
            <mxPoint x="290" y="90" as="sourcePoint" />
            <mxPoint x="510" y="90" as="targetPoint" />
          </mxGeometry>
        </mxCell>
        <mxCell id="0tN4Jmf0T8t89IfO1dIK-11" style="edgeStyle=orthogonalEdgeStyle;rounded=0;orthogonalLoop=1;jettySize=auto;html=1;exitX=1;exitY=0.25;exitDx=0;exitDy=0;entryX=0;entryY=0.34;entryDx=0;entryDy=0;entryPerimeter=0;endArrow=none;startFill=0;" parent="1" edge="1">
          <mxGeometry relative="1" as="geometry">
            <mxPoint x="290" y="180" as="sourcePoint" />
            <mxPoint x="510" y="180" as="targetPoint" />
          </mxGeometry>
        </mxCell>
        <mxCell id="0tN4Jmf0T8t89IfO1dIK-12" style="edgeStyle=orthogonalEdgeStyle;rounded=0;orthogonalLoop=1;jettySize=auto;html=1;exitX=1;exitY=0.25;exitDx=0;exitDy=0;entryX=0;entryY=0.34;entryDx=0;entryDy=0;entryPerimeter=0;endArrow=none;startFill=0;" parent="1" edge="1">
          <mxGeometry relative="1" as="geometry">
            <mxPoint x="290" y="210" as="sourcePoint" />
            <mxPoint x="510" y="210" as="targetPoint" />
          </mxGeometry>
        </mxCell>
        <mxCell id="0tN4Jmf0T8t89IfO1dIK-13" style="edgeStyle=orthogonalEdgeStyle;rounded=0;orthogonalLoop=1;jettySize=auto;html=1;exitX=1;exitY=0.25;exitDx=0;exitDy=0;entryX=0;entryY=0.34;entryDx=0;entryDy=0;entryPerimeter=0;endArrow=none;startFill=0;" parent="1" edge="1">
          <mxGeometry relative="1" as="geometry">
            <mxPoint x="290" y="239.5" as="sourcePoint" />
            <mxPoint x="510" y="239.5" as="targetPoint" />
          </mxGeometry>
        </mxCell>
        <mxCell id="0tN4Jmf0T8t89IfO1dIK-15" style="edgeStyle=orthogonalEdgeStyle;rounded=0;orthogonalLoop=1;jettySize=auto;html=1;exitX=1;exitY=0.25;exitDx=0;exitDy=0;entryX=0;entryY=0.34;entryDx=0;entryDy=0;entryPerimeter=0;endArrow=none;startFill=0;" parent="1" edge="1">
          <mxGeometry relative="1" as="geometry">
            <mxPoint x="290" y="269.5" as="sourcePoint" />
            <mxPoint x="510" y="269.5" as="targetPoint" />
          </mxGeometry>
        </mxCell>
        <mxCell id="0tN4Jmf0T8t89IfO1dIK-16" value="4 RS" style="text;html=1;align=center;verticalAlign=middle;resizable=0;points=[];autosize=1;strokeColor=none;fillColor=none;fontSize=14;" parent="1" vertex="1">
          <mxGeometry x="510" y="80" width="50" height="30" as="geometry" />
        </mxCell>
        <mxCell id="0tN4Jmf0T8t89IfO1dIK-17" value="5 R/W" style="text;html=1;align=center;verticalAlign=middle;resizable=0;points=[];autosize=1;strokeColor=none;fillColor=none;fontSize=14;" parent="1" vertex="1">
          <mxGeometry x="505" y="110" width="60" height="30" as="geometry" />
        </mxCell>
        <mxCell id="0tN4Jmf0T8t89IfO1dIK-18" value="6 E" style="text;html=1;align=center;verticalAlign=middle;resizable=0;points=[];autosize=1;strokeColor=none;fillColor=none;fontSize=14;" parent="1" vertex="1">
          <mxGeometry x="510" y="135" width="40" height="30" as="geometry" />
        </mxCell>
        <mxCell id="0tN4Jmf0T8t89IfO1dIK-19" value="11 DB4" style="text;html=1;align=center;verticalAlign=middle;resizable=0;points=[];autosize=1;strokeColor=none;fillColor=none;fontSize=14;" parent="1" vertex="1">
          <mxGeometry x="500" y="165" width="70" height="30" as="geometry" />
        </mxCell>
        <mxCell id="0tN4Jmf0T8t89IfO1dIK-20" value="12DB5" style="text;html=1;align=center;verticalAlign=middle;resizable=0;points=[];autosize=1;strokeColor=none;fillColor=none;fontSize=14;" parent="1" vertex="1">
          <mxGeometry x="500" y="195" width="70" height="30" as="geometry" />
        </mxCell>
        <mxCell id="0tN4Jmf0T8t89IfO1dIK-21" value="13 DB6" style="text;html=1;align=center;verticalAlign=middle;resizable=0;points=[];autosize=1;strokeColor=none;fillColor=none;fontSize=14;" parent="1" vertex="1">
          <mxGeometry x="500" y="225" width="70" height="30" as="geometry" />
        </mxCell>
        <mxCell id="0tN4Jmf0T8t89IfO1dIK-22" value="14 DB7" style="text;html=1;align=center;verticalAlign=middle;resizable=0;points=[];autosize=1;strokeColor=none;fillColor=none;fontSize=14;" parent="1" vertex="1">
          <mxGeometry x="500" y="255" width="70" height="30" as="geometry" />
        </mxCell>
        <mxCell id="0tN4Jmf0T8t89IfO1dIK-36" style="edgeStyle=orthogonalEdgeStyle;rounded=0;orthogonalLoop=1;jettySize=auto;html=1;exitX=1;exitY=0.75;exitDx=0;exitDy=0;endArrow=none;startFill=0;" parent="1" source="0tN4Jmf0T8t89IfO1dIK-23" edge="1">
          <mxGeometry relative="1" as="geometry">
            <mxPoint x="800" y="650" as="targetPoint" />
          </mxGeometry>
        </mxCell>
        <mxCell id="0tN4Jmf0T8t89IfO1dIK-37" style="edgeStyle=orthogonalEdgeStyle;rounded=0;orthogonalLoop=1;jettySize=auto;html=1;exitX=0.5;exitY=1;exitDx=0;exitDy=0;endArrow=none;startFill=0;" parent="1" source="0tN4Jmf0T8t89IfO1dIK-23" edge="1">
          <mxGeometry relative="1" as="geometry">
            <mxPoint x="670" y="680" as="targetPoint" />
          </mxGeometry>
        </mxCell>
        <mxCell id="0tN4Jmf0T8t89IfO1dIK-43" style="edgeStyle=orthogonalEdgeStyle;rounded=0;orthogonalLoop=1;jettySize=auto;html=1;exitX=0.5;exitY=0;exitDx=0;exitDy=0;" parent="1" source="0tN4Jmf0T8t89IfO1dIK-23" edge="1">
          <mxGeometry relative="1" as="geometry">
            <mxPoint x="670" y="460" as="targetPoint" />
          </mxGeometry>
        </mxCell>
        <mxCell id="0tN4Jmf0T8t89IfO1dIK-23" value="&lt;b&gt;&lt;font style=&quot;font-size: 16px;&quot;&gt;Max1044&lt;/font&gt;&lt;/b&gt;" style="rounded=0;whiteSpace=wrap;html=1;" parent="1" vertex="1">
          <mxGeometry x="600" y="500" width="140" height="120" as="geometry" />
        </mxCell>
        <mxCell id="0tN4Jmf0T8t89IfO1dIK-58" style="edgeStyle=orthogonalEdgeStyle;rounded=0;orthogonalLoop=1;jettySize=auto;html=1;exitX=0.5;exitY=1;exitDx=0;exitDy=0;endArrow=none;startFill=0;" parent="1" source="0tN4Jmf0T8t89IfO1dIK-25" edge="1">
          <mxGeometry relative="1" as="geometry">
            <mxPoint x="410" y="670" as="targetPoint" />
          </mxGeometry>
        </mxCell>
        <mxCell id="0tN4Jmf0T8t89IfO1dIK-25" value="&lt;b&gt;&lt;font style=&quot;font-size: 16px;&quot;&gt;Rotary Encoder&lt;/font&gt;&lt;/b&gt;" style="rounded=0;whiteSpace=wrap;html=1;" parent="1" vertex="1">
          <mxGeometry x="340" y="500" width="140" height="120" as="geometry" />
        </mxCell>
        <mxCell id="0tN4Jmf0T8t89IfO1dIK-27" value="3.3V" style="text;html=1;align=center;verticalAlign=middle;resizable=0;points=[];autosize=1;strokeColor=none;fillColor=none;" parent="1" vertex="1">
          <mxGeometry x="615" y="8" width="50" height="30" as="geometry" />
        </mxCell>
        <mxCell id="0tN4Jmf0T8t89IfO1dIK-28" value="2 Vdd" style="text;html=1;align=center;verticalAlign=middle;resizable=0;points=[];autosize=1;strokeColor=none;fillColor=none;fontSize=14;" parent="1" vertex="1">
          <mxGeometry x="595" y="70" width="60" height="30" as="geometry" />
        </mxCell>
        <mxCell id="0tN4Jmf0T8t89IfO1dIK-29" value="1 Vss" style="text;html=1;align=center;verticalAlign=middle;resizable=0;points=[];autosize=1;strokeColor=none;fillColor=none;fontSize=14;" parent="1" vertex="1">
          <mxGeometry x="595" y="300" width="60" height="30" as="geometry" />
        </mxCell>
        <mxCell id="0tN4Jmf0T8t89IfO1dIK-46" style="edgeStyle=orthogonalEdgeStyle;rounded=0;orthogonalLoop=1;jettySize=auto;html=1;exitX=0;exitY=0.5;exitDx=0;exitDy=0;exitPerimeter=0;entryX=1;entryY=0.25;entryDx=0;entryDy=0;endArrow=none;startFill=0;" parent="1" source="0tN4Jmf0T8t89IfO1dIK-32" target="0tN4Jmf0T8t89IfO1dIK-23" edge="1">
          <mxGeometry relative="1" as="geometry">
            <Array as="points">
              <mxPoint x="510" y="410" />
              <mxPoint x="510" y="440" />
              <mxPoint x="760" y="440" />
              <mxPoint x="760" y="530" />
            </Array>
          </mxGeometry>
        </mxCell>
        <mxCell id="0tN4Jmf0T8t89IfO1dIK-47" style="edgeStyle=orthogonalEdgeStyle;rounded=0;orthogonalLoop=1;jettySize=auto;html=1;exitX=1;exitY=0.5;exitDx=0;exitDy=0;exitPerimeter=0;endArrow=none;startFill=0;" parent="1" source="0tN4Jmf0T8t89IfO1dIK-32" edge="1">
          <mxGeometry relative="1" as="geometry">
            <mxPoint x="820" y="460" as="targetPoint" />
          </mxGeometry>
        </mxCell>
        <mxCell id="0tN4Jmf0T8t89IfO1dIK-32" value="" style="pointerEvents=1;verticalLabelPosition=bottom;shadow=0;dashed=0;align=center;html=1;verticalAlign=top;shape=mxgraph.electrical.resistors.resistor_2;" parent="1" vertex="1">
          <mxGeometry x="530" y="400" width="100" height="20" as="geometry" />
        </mxCell>
        <mxCell id="0tN4Jmf0T8t89IfO1dIK-34" value="3 Vo" style="text;html=1;align=center;verticalAlign=middle;resizable=0;points=[];autosize=1;strokeColor=none;fillColor=none;fontSize=14;" parent="1" vertex="1">
          <mxGeometry x="505" y="300" width="50" height="30" as="geometry" />
        </mxCell>
        <mxCell id="0tN4Jmf0T8t89IfO1dIK-38" value="" style="pointerEvents=1;verticalLabelPosition=bottom;shadow=0;dashed=0;align=center;html=1;verticalAlign=top;shape=mxgraph.electrical.capacitors.capacitor_2;rotation=90;" parent="1" vertex="1">
          <mxGeometry x="525" y="550" width="40" height="20" as="geometry" />
        </mxCell>
        <mxCell id="0tN4Jmf0T8t89IfO1dIK-39" style="edgeStyle=orthogonalEdgeStyle;rounded=0;orthogonalLoop=1;jettySize=auto;html=1;exitX=0;exitY=0.5;exitDx=0;exitDy=0;exitPerimeter=0;entryX=0;entryY=0.158;entryDx=0;entryDy=0;entryPerimeter=0;endArrow=none;startFill=0;" parent="1" source="0tN4Jmf0T8t89IfO1dIK-38" target="0tN4Jmf0T8t89IfO1dIK-23" edge="1">
          <mxGeometry relative="1" as="geometry" />
        </mxCell>
        <mxCell id="0tN4Jmf0T8t89IfO1dIK-40" style="edgeStyle=orthogonalEdgeStyle;rounded=0;orthogonalLoop=1;jettySize=auto;html=1;exitX=1;exitY=0.5;exitDx=0;exitDy=0;exitPerimeter=0;entryX=0.014;entryY=0.833;entryDx=0;entryDy=0;entryPerimeter=0;endArrow=none;startFill=0;" parent="1" source="0tN4Jmf0T8t89IfO1dIK-38" target="0tN4Jmf0T8t89IfO1dIK-23" edge="1">
          <mxGeometry relative="1" as="geometry" />
        </mxCell>
        <mxCell id="0tN4Jmf0T8t89IfO1dIK-41" value="8 V+" style="text;html=1;align=center;verticalAlign=middle;resizable=0;points=[];autosize=1;strokeColor=none;fillColor=none;fontSize=14;" parent="1" vertex="1">
          <mxGeometry x="650" y="500" width="50" height="30" as="geometry" />
        </mxCell>
        <mxCell id="0tN4Jmf0T8t89IfO1dIK-44" value="3.3V" style="text;html=1;align=center;verticalAlign=middle;resizable=0;points=[];autosize=1;strokeColor=none;fillColor=none;fontSize=14;" parent="1" vertex="1">
          <mxGeometry x="670" y="450" width="50" height="30" as="geometry" />
        </mxCell>
        <mxCell id="0tN4Jmf0T8t89IfO1dIK-45" style="edgeStyle=orthogonalEdgeStyle;rounded=0;orthogonalLoop=1;jettySize=auto;html=1;exitX=0;exitY=1;exitDx=0;exitDy=0;entryX=0.5;entryY=-0.05;entryDx=0;entryDy=0;entryPerimeter=0;endArrow=none;startFill=0;" parent="1" source="0tN4Jmf0T8t89IfO1dIK-2" target="0tN4Jmf0T8t89IfO1dIK-32" edge="1">
          <mxGeometry relative="1" as="geometry">
            <Array as="points">
              <mxPoint x="510" y="310" />
              <mxPoint x="460" y="310" />
              <mxPoint x="460" y="365" />
              <mxPoint x="580" y="365" />
            </Array>
          </mxGeometry>
        </mxCell>
        <mxCell id="0tN4Jmf0T8t89IfO1dIK-48" value="2 Cap+" style="text;html=1;align=center;verticalAlign=middle;resizable=0;points=[];autosize=1;strokeColor=none;fillColor=none;fontSize=14;" parent="1" vertex="1">
          <mxGeometry x="585" y="510" width="70" height="30" as="geometry" />
        </mxCell>
        <mxCell id="0tN4Jmf0T8t89IfO1dIK-49" value="4 Cap-" style="text;html=1;align=center;verticalAlign=middle;resizable=0;points=[];autosize=1;strokeColor=none;fillColor=none;fontSize=14;" parent="1" vertex="1">
          <mxGeometry x="585" y="580" width="70" height="30" as="geometry" />
        </mxCell>
        <mxCell id="0tN4Jmf0T8t89IfO1dIK-50" value="3" style="text;html=1;align=center;verticalAlign=middle;resizable=0;points=[];autosize=1;strokeColor=none;fillColor=none;fontSize=14;" parent="1" vertex="1">
          <mxGeometry x="655" y="590" width="30" height="30" as="geometry" />
        </mxCell>
        <mxCell id="0tN4Jmf0T8t89IfO1dIK-51" value="6 LV" style="text;html=1;align=center;verticalAlign=middle;resizable=0;points=[];autosize=1;strokeColor=none;fillColor=none;fontSize=14;" parent="1" vertex="1">
          <mxGeometry x="690" y="580" width="50" height="30" as="geometry" />
        </mxCell>
        <mxCell id="0tN4Jmf0T8t89IfO1dIK-52" value="5 Vo" style="text;html=1;align=center;verticalAlign=middle;resizable=0;points=[];autosize=1;strokeColor=none;fillColor=none;fontSize=14;" parent="1" vertex="1">
          <mxGeometry x="690" y="520" width="50" height="30" as="geometry" />
        </mxCell>
        <mxCell id="0tN4Jmf0T8t89IfO1dIK-54" style="edgeStyle=orthogonalEdgeStyle;rounded=0;orthogonalLoop=1;jettySize=auto;html=1;exitX=1;exitY=0.75;exitDx=0;exitDy=0;endArrow=none;startFill=0;" parent="1" edge="1">
          <mxGeometry relative="1" as="geometry">
            <mxPoint x="290" y="365" as="sourcePoint" />
            <mxPoint x="340" y="600" as="targetPoint" />
            <Array as="points">
              <mxPoint x="310" y="365" />
              <mxPoint x="310" y="600" />
              <mxPoint x="340" y="600" />
            </Array>
          </mxGeometry>
        </mxCell>
        <mxCell id="0tN4Jmf0T8t89IfO1dIK-55" value="A" style="text;html=1;align=center;verticalAlign=middle;resizable=0;points=[];autosize=1;strokeColor=none;fillColor=none;fontSize=14;" parent="1" vertex="1">
          <mxGeometry x="340" y="520" width="30" height="30" as="geometry" />
        </mxCell>
        <mxCell id="0tN4Jmf0T8t89IfO1dIK-56" value="B" style="text;html=1;align=center;verticalAlign=middle;resizable=0;points=[];autosize=1;strokeColor=none;fillColor=none;fontSize=14;" parent="1" vertex="1">
          <mxGeometry x="340" y="580" width="30" height="30" as="geometry" />
        </mxCell>
        <mxCell id="0tN4Jmf0T8t89IfO1dIK-57" value="C" style="text;html=1;align=center;verticalAlign=middle;resizable=0;points=[];autosize=1;strokeColor=none;fillColor=none;fontSize=14;" parent="1" vertex="1">
          <mxGeometry x="395" y="590" width="30" height="30" as="geometry" />
        </mxCell>
        <mxCell id="0tN4Jmf0T8t89IfO1dIK-59" value="P3.4" style="text;html=1;align=center;verticalAlign=middle;resizable=0;points=[];autosize=1;strokeColor=none;fillColor=none;fontSize=14;" parent="1" vertex="1">
          <mxGeometry x="240" y="310" width="50" height="30" as="geometry" />
        </mxCell>
        <mxCell id="0tN4Jmf0T8t89IfO1dIK-60" value="P3.4" style="text;html=1;align=center;verticalAlign=middle;resizable=0;points=[];autosize=1;strokeColor=none;fillColor=none;fontSize=14;" parent="1" vertex="1">
          <mxGeometry x="240" y="350" width="50" height="30" as="geometry" />
        </mxCell>
        <mxCell id="0tN4Jmf0T8t89IfO1dIK-61" value="P2.4" style="text;html=1;align=center;verticalAlign=middle;resizable=0;points=[];autosize=1;strokeColor=none;fillColor=none;fontSize=14;" parent="1" vertex="1">
          <mxGeometry x="240" y="255" width="50" height="30" as="geometry" />
        </mxCell>
        <mxCell id="0tN4Jmf0T8t89IfO1dIK-62" value="P2.2" style="text;html=1;align=center;verticalAlign=middle;resizable=0;points=[];autosize=1;strokeColor=none;fillColor=none;fontSize=14;" parent="1" vertex="1">
          <mxGeometry x="240" y="225" width="50" height="30" as="geometry" />
        </mxCell>
        <mxCell id="0tN4Jmf0T8t89IfO1dIK-63" value="P2.1" style="text;html=1;align=center;verticalAlign=middle;resizable=0;points=[];autosize=1;strokeColor=none;fillColor=none;fontSize=14;" parent="1" vertex="1">
          <mxGeometry x="240" y="195" width="50" height="30" as="geometry" />
        </mxCell>
        <mxCell id="0tN4Jmf0T8t89IfO1dIK-64" value="P2.0" style="text;html=1;align=center;verticalAlign=middle;resizable=0;points=[];autosize=1;strokeColor=none;fillColor=none;fontSize=14;" parent="1" vertex="1">
          <mxGeometry x="240" y="165" width="50" height="30" as="geometry" />
        </mxCell>
        <mxCell id="0tN4Jmf0T8t89IfO1dIK-65" value="P4.7" style="text;html=1;align=center;verticalAlign=middle;resizable=0;points=[];autosize=1;strokeColor=none;fillColor=none;fontSize=14;" parent="1" vertex="1">
          <mxGeometry x="240" y="135" width="50" height="30" as="geometry" />
        </mxCell>
        <mxCell id="0tN4Jmf0T8t89IfO1dIK-66" value="P4.6" style="text;html=1;align=center;verticalAlign=middle;resizable=0;points=[];autosize=1;strokeColor=none;fillColor=none;fontSize=14;" parent="1" vertex="1">
          <mxGeometry x="240" y="105" width="50" height="30" as="geometry" />
        </mxCell>
        <mxCell id="0tN4Jmf0T8t89IfO1dIK-67" value="P4.4" style="text;html=1;align=center;verticalAlign=middle;resizable=0;points=[];autosize=1;strokeColor=none;fillColor=none;fontSize=14;" parent="1" vertex="1">
          <mxGeometry x="240" y="75" width="50" height="30" as="geometry" />
        </mxCell>
        <mxCell id="0tN4Jmf0T8t89IfO1dIK-68" value="" style="pointerEvents=1;verticalLabelPosition=bottom;shadow=0;dashed=0;align=center;html=1;verticalAlign=top;shape=mxgraph.electrical.signal_sources.protective_earth;" parent="1" vertex="1">
          <mxGeometry x="397.5" y="670" width="25" height="20" as="geometry" />
        </mxCell>
        <mxCell id="0tN4Jmf0T8t89IfO1dIK-69" value="" style="pointerEvents=1;verticalLabelPosition=bottom;shadow=0;dashed=0;align=center;html=1;verticalAlign=top;shape=mxgraph.electrical.signal_sources.protective_earth;" parent="1" vertex="1">
          <mxGeometry x="657.5" y="680" width="25" height="20" as="geometry" />
        </mxCell>
        <mxCell id="0tN4Jmf0T8t89IfO1dIK-70" value="" style="pointerEvents=1;verticalLabelPosition=bottom;shadow=0;dashed=0;align=center;html=1;verticalAlign=top;shape=mxgraph.electrical.signal_sources.protective_earth;" parent="1" vertex="1">
          <mxGeometry x="790" y="650" width="25" height="20" as="geometry" />
        </mxCell>
        <mxCell id="0tN4Jmf0T8t89IfO1dIK-71" value="" style="pointerEvents=1;verticalLabelPosition=bottom;shadow=0;dashed=0;align=center;html=1;verticalAlign=top;shape=mxgraph.electrical.signal_sources.protective_earth;" parent="1" vertex="1">
          <mxGeometry x="810" y="460" width="25" height="20" as="geometry" />
        </mxCell>
        <mxCell id="0tN4Jmf0T8t89IfO1dIK-72" value="" style="pointerEvents=1;verticalLabelPosition=bottom;shadow=0;dashed=0;align=center;html=1;verticalAlign=top;shape=mxgraph.electrical.signal_sources.protective_earth;" parent="1" vertex="1">
          <mxGeometry x="612.5" y="370" width="25" height="20" as="geometry" />
        </mxCell>
      </root>
    </mxGraphModel>
  </diagram>
</mxfile>
